<?xml version="1.0" standalone="no"?>
<!DOCTYPE svg PUBLIC "-//W3C//DTD SVG 20010904//EN"
 "http://www.w3.org/TR/2001/REC-SVG-20010904/DTD/svg10.dtd">
<svg version="1.0" xmlns="http://www.w3.org/2000/svg"
 width="170.000000pt" height="150.000000pt" viewBox="0 0 170.000000 150.000000"
 preserveAspectRatio="xMidYMid meet">

<g transform="translate(0.000000,150.000000) scale(0.100000,-0.100000)"
fill="#000000" stroke="none">
<path d="M475 1494 c-234 -27 -396 -88 -452 -173 l-23 -34 0 -537 0 -537 23
-34 c127 -190 789 -243 1103 -89 79 39 134 98 134 144 l0 33 62 7 c180 21 336
168 369 349 42 229 -134 462 -366 484 l-65 6 0 93 c0 94 0 94 -36 134 -90 100
-327 162 -604 158 -63 0 -128 -3 -145 -4z m486 -107 c293 -77 292 -182 -1
-257 -285 -73 -732 -28 -854 85 -15 13 -26 33 -26 44 0 40 91 95 211 126 109
29 172 34 374 31 176 -3 211 -6 296 -29z m-793 -292 c104 -43 223 -65 392 -72
232 -9 442 22 563 83 27 14 52 22 55 19 10 -9 9 -864 -1 -897 -8 -30 -62 -67
-137 -93 -276 -98 -801 -63 -932 62 l-28 27 0 454 c0 360 3 453 13 449 6 -3
40 -18 75 -32z m1236 -86 c69 -25 151 -102 186 -174 21 -43 25 -64 25 -145 -1
-84 -4 -101 -28 -148 -55 -105 -161 -180 -269 -190 l-58 -5 0 42 c0 40 1 41
33 41 17 0 55 11 82 24 96 45 154 135 155 237 0 140 -83 244 -215 271 -54 11
-55 11 -55 46 l0 35 44 -6 c24 -4 69 -16 100 -28z m-61 -133 c72 -30 126 -129
112 -205 -17 -90 -74 -150 -151 -159 l-44 -5 0 192 0 191 25 0 c14 0 40 -6 58
-14z"/>
<path d="M180 671 c0 -108 3 -130 16 -135 9 -3 17 -6 19 -6 2 0 28 44 57 98
l53 97 3 -111 c2 -101 5 -112 22 -117 16 -4 29 13 77 104 56 105 59 109 91
109 l33 0 -7 -115 c-6 -99 -5 -115 8 -115 17 0 28 63 28 163 l0 57 45 0 c25 0
45 -1 45 -3 0 -11 31 -221 33 -223 1 -1 29 2 62 7 97 15 140 60 131 135 -7 56
-24 89 -52 104 -16 9 -80 13 -204 14 l-181 1 -47 -93 -47 -92 -3 104 c-2 95
-4 105 -23 111 -11 4 -22 5 -23 3 -2 -1 -25 -46 -52 -98 l-49 -95 -3 113 c-2
90 -5 112 -17 112 -12 0 -15 -22 -15 -129z m635 33 c40 -16 60 -119 30 -161
-13 -19 -103 -49 -113 -38 -7 6 -29 195 -24 200 7 7 87 6 107 -1z"/>
<path d="M954 778 c-7 -11 -23 -259 -17 -267 1 -2 9 -1 18 2 9 4 15 19 15 40
0 32 3 34 56 51 l55 17 20 -25 c20 -25 54 -37 47 -16 -8 24 -162 210 -174 210
-7 0 -16 -5 -20 -12z m106 -129 c0 -5 -68 -29 -84 -29 -9 0 -8 105 1 114 7 7
82 -71 83 -85z"/>
</g>
</svg>
